<svg xmlns="http://www.w3.org/2000/svg" width="24" height="21.337"><path d="M18.752 6.001a9.334 9.334 0 100 9.334l1.154.666a10.668 10.668 0 110-10.668zm3.244 2h-1.33v2h-2v1.333h2v2h1.33v-2h2v-1.333h-2zM9.331 14.669v-1.334h.665v-1.334h-.667v-2H7.996v2H5.524l1.647-5.127-1.267-.407-1.808 5.628-.067.347.58.893h3.387v1.333zm6.934-6.154l.8-1.073a4.074 4.074 0 00-5.234.373 4.001 4.001 0 005.234 6.054l.267-.2v-3.668h-2.667v1.333h1.331v1.647a2.714 2.714 0 01-3.22-.427 2.667 2.667 0 010-3.78 2.72 2.72 0 013.489-.259z"/></svg>