<svg xmlns="http://www.w3.org/2000/svg" width="176" height="52.148"><defs><style>.a{fill:#fff}</style></defs><path d="M169.742 52.148H6.167A6.18 6.18 0 010 45.982V6.167A6.167 6.167 0 016.167 0h163.575A6.258 6.258 0 01176 6.167v39.815a6.258 6.258 0 01-6.258 6.166z"/><path class="a" d="M40.099 25.673a7.719 7.719 0 013.673-6.468 7.905 7.905 0 00-6.228-3.364c-2.662-.279-5.15 1.57-6.495 1.57s-3.42-1.544-5.63-1.491a8.291 8.291 0 00-6.974 4.259c-3.021 5.217-.772 12.9 2.129 17.115 1.451 2.063 3.141 4.379 5.323 4.3s2.968-1.331 5.576-1.331 3.34 1.331 5.6 1.331 3.78-2.076 5.177-4.166a17.075 17.075 0 002.369-4.818 7.453 7.453 0 01-4.525-6.934z"/><path class="a" d="M35.187 13.523A7.6 7.6 0 0036.93 8.08a7.732 7.732 0 00-5 2.582 7.227 7.227 0 00-1.783 5.244 6.388 6.388 0 005.04-2.383zm34.957 27.658h-3.035l-1.65-5.2H59.71l-1.584 5.2h-2.941l5.7-17.7h3.527zm-5.177-7.32l-1.492-4.631q-.253-.759-.852-3.354-.266 1.131-.838 3.34l-1.584 4.645zm19.471.44a7.253 7.253 0 01-1.757 5.15 5.15 5.15 0 01-3.913 1.677 3.913 3.913 0 01-3.62-1.81v6.721h-2.9V32.278q0-2.05-.106-4.206h2.5l.161 2.024a5.044 5.044 0 018.078-.506 7.04 7.04 0 011.557 4.711zm-2.888.106a5.323 5.323 0 00-.838-3.074 2.9 2.9 0 00-2.475-1.264 2.954 2.954 0 00-1.9.692 3.234 3.234 0 00-1.118 1.823 3.713 3.713 0 00-.133.865v2.129a3.407 3.407 0 00.852 2.356 2.835 2.835 0 002.223.958 2.9 2.9 0 002.5-1.238 5.43 5.43 0 00.889-3.246zm17.258-.106a7.253 7.253 0 01-1.757 5.151 5.137 5.137 0 01-3.913 1.677 3.913 3.913 0 01-3.62-1.81v6.721h-2.9V32.278q0-2.05-.106-4.206h2.5l.161 2.024a5.044 5.044 0 018.078-.506 7.054 7.054 0 011.557 4.711zm-2.888.106a5.324 5.324 0 00-.838-3.074 2.9 2.9 0 00-2.531-1.264 2.955 2.955 0 00-1.9.692 3.221 3.221 0 00-1.118 1.823 3.792 3.792 0 00-.133.865v2.129a3.42 3.42 0 00.852 2.356 2.835 2.835 0 002.3.9 2.9 2.9 0 002.499-1.232 5.43 5.43 0 00.869-3.194zm18.889 1.808a4.724 4.724 0 01-1.57 3.673 6.974 6.974 0 01-4.818 1.557 8.451 8.451 0 01-4.591-1.1l.652-2.369a7.772 7.772 0 004.1 1.131 3.873 3.873 0 002.5-.719 2.369 2.369 0 00.892-1.93 2.462 2.462 0 00-.732-1.81 6.84 6.84 0 00-2.449-1.339q-4.631-1.783-4.631-5.124a4.5 4.5 0 011.664-3.647 6.428 6.428 0 014.338-1.329 8.6 8.6 0 013.993.838l-.678 2.319a6.974 6.974 0 00-3.394-.812 3.434 3.434 0 00-2.342.732 2.1 2.1 0 00-.705 1.6 2.169 2.169 0 00.812 1.73 9.2 9.2 0 002.582 1.331 8.744 8.744 0 013.367 2.156 4.5 4.5 0 011.011 3.114zm9.21-5.689h-3.129v6.2q0 2.369 1.65 2.369a5.044 5.044 0 001.264-.133l.093 2.143a6.428 6.428 0 01-2.209.319 3.407 3.407 0 01-2.662-1.025 5.031 5.031 0 01-.945-3.447v-6.426h-1.861v-2.13h1.863v-2.342l2.781-.838v3.18h3.126zm13.831 4.128a7 7 0 01-1.677 4.831 6 6 0 01-4.685 1.943 5.709 5.709 0 01-4.472-1.863 6.787 6.787 0 01-1.664-4.7 6.934 6.934 0 011.717-4.858 5.949 5.949 0 014.631-1.89 5.829 5.829 0 014.525 1.863 6.654 6.654 0 011.625 4.674zm-2.941.093a5.749 5.749 0 00-.759-3.034 2.808 2.808 0 00-2.542-1.53 2.848 2.848 0 00-2.662 1.53 5.856 5.856 0 00-.759 3.088 5.736 5.736 0 00.759 3.008 2.9 2.9 0 005.124 0 5.763 5.763 0 00.838-3.061zm11.938-3.879a4.924 4.924 0 00-.892-.08 2.662 2.662 0 00-2.316 1.131 4.246 4.246 0 00-.705 2.529V41.1h-2.835v-8.741q0-2.209-.106-3.993h2.475l.106 2.449h.08a4.365 4.365 0 011.424-2.023 3.434 3.434 0 012.05-.679 4.551 4.551 0 01.705 0zm12.065 3.28a6.655 6.655 0 01-.106 1.331h-8.517a3.7 3.7 0 001.238 2.888 4.219 4.219 0 002.781.892 9.409 9.409 0 003.447-.6l.439 1.97a10.647 10.647 0 01-4.285.785 6.2 6.2 0 01-4.671-1.743 6.455 6.455 0 01-1.69-4.685 7.32 7.32 0 011.584-4.8 5.443 5.443 0 014.472-2.05 4.764 4.764 0 014.179 2.05 6.907 6.907 0 011.131 3.966zm-2.662-.732a3.86 3.86 0 00-.546-2.183 2.475 2.475 0 00-2.262-1.184 2.662 2.662 0 00-2.262 1.158 4.232 4.232 0 00-.838 2.209h5.909zM56.574 9.454a5.017 5.017 0 011.02-.453 4.352 4.352 0 011.331-.186 3.021 3.021 0 011.97.6 1.956 1.956 0 01.719 1.6 1.943 1.943 0 01-.479 1.331 2.342 2.342 0 01-1.238.719 3.168 3.168 0 01.785.226 2.116 2.116 0 01.652.426 2.036 2.036 0 01.439.639 1.956 1.956 0 01.16.8 2.342 2.342 0 01-.293 1.211 2.435 2.435 0 01-.759.8 3.194 3.194 0 01-1.051.439 5.164 5.164 0 01-1.158.133 5.936 5.936 0 01-1.224-.133 3.806 3.806 0 01-1.118-.426l.346-1.078a5.324 5.324 0 00.865.319 3.766 3.766 0 001.078.16 2.1 2.1 0 001.331-.4 1.464 1.464 0 00.346-1.757 1.411 1.411 0 00-.506-.466 2.2 2.2 0 00-.692-.226 4.565 4.565 0 00-.759 0h-.586v-1.071h.586a2.515 2.515 0 00.745-.106 1.89 1.89 0 00.6-.293 1.331 1.331 0 00.4-.452 1.2 1.2 0 00.146-.586 1.1 1.1 0 00-.413-.9 1.73 1.73 0 00-1.145-.359 3.1 3.1 0 00-.958.16 7.053 7.053 0 00-.852.333zm10.945 8.153l-.106-.719a2.129 2.129 0 01-1.837.865 2.036 2.036 0 01-.772-.146 1.9 1.9 0 01-.612-.386 1.7 1.7 0 01-.4-.586 1.876 1.876 0 01-.146-.732 1.93 1.93 0 01.958-1.757 5.2 5.2 0 012.662-.586v-.12q0-1.238-1.331-1.238a2.915 2.915 0 00-1.637.466l-.24-.958a3.993 3.993 0 012.156-.546q2.462 0 2.462 2.6v2.311a9.5 9.5 0 00.093 1.5h-1.25zm-.2-3.128a3.913 3.913 0 00-1.743.293 1.011 1.011 0 00-.572.972.945.945 0 00.266.732.972.972 0 00.679.24 1.336 1.336 0 001.291-.759 1.158 1.158 0 00.12-.506zm7.927-3.142v1.145h-2.662v5.124h-1.331v-6.269zm7.84 3.021a4.325 4.325 0 01-.2 1.331 3.181 3.181 0 01-.572 1.065 2.555 2.555 0 01-2.01.932 1.93 1.93 0 01-1.783-.892v3.3H77.19v-8.77h1.224l.08 1a2.329 2.329 0 012.116-1.12 2.3 2.3 0 011.025.226 2.515 2.515 0 01.825.652 3.114 3.114 0 01.546 1.011 3.993 3.993 0 01.08 1.265zm-1.424 0a3.181 3.181 0 00-.106-.852 1.97 1.97 0 00-.319-.665 1.57 1.57 0 00-.519-.439 1.451 1.451 0 00-1.264 0 1.584 1.584 0 00-.492.346 1.73 1.73 0 00-.466 1.184v1.051a1.823 1.823 0 00.106.639 1.557 1.557 0 00.306.519 1.4 1.4 0 00.479.346 1.491 1.491 0 00.612.12 1.437 1.437 0 001.224-.6 2.662 2.662 0 00.439-1.57zm8.76-3.039l-1.6 4.365a19.524 19.524 0 01-1.1 2.542 5.656 5.656 0 01-1.025 1.451 3.088 3.088 0 01-1.531.785l-.333-1.171a2.662 2.662 0 001.038-.559 3.088 3.088 0 00.785-1.038.785.785 0 00.106-.279 1.171 1.171 0 00-.08-.293l-2.289-5.803h1.53l1.184 3.5a2.487 2.487 0 00.186.559l.2.679a3.232 3.232 0 01.146-.519c.053-.213.12-.452.2-.732l1.066-3.487h1.491zm2.266 2.628h.639a1.956 1.956 0 001.091-.253.759.759 0 00.386-.639.719.719 0 00-.333-.626 1.557 1.557 0 00-.9-.24 2.449 2.449 0 00-.759.12 3.993 3.993 0 00-.705.306l-.346-.9a3.859 3.859 0 011.078-.413 5.323 5.323 0 011.025-.093 4.5 4.5 0 01.865.08 2.382 2.382 0 01.772.279 1.65 1.65 0 01.546.519 1.424 1.424 0 01.213.8 1.118 1.118 0 01-.12.519 1.33 1.33 0 01-.306.4 1.664 1.664 0 01-.426.279 2.316 2.316 0 01-.479.16 2.489 2.489 0 01.6.16 2.063 2.063 0 01.519.306 1.517 1.517 0 01.373.452 1.331 1.331 0 01.146.6 1.53 1.53 0 01-.266.932 1.943 1.943 0 01-.692.6 3.34 3.34 0 01-.918.319 5.244 5.244 0 01-.985.093 5.443 5.443 0 01-1.145-.12 3.606 3.606 0 01-1.025-.386l.359-.918a3.713 3.713 0 00.772.306 3.247 3.247 0 00.878.12 1.837 1.837 0 001.091-.279.838.838 0 00.386-.692.785.785 0 00-.133-.452.945.945 0 00-.359-.306 1.77 1.77 0 00-.546-.16 4.578 4.578 0 00-.665 0h-.652zm7.28-2.611v4.88l.479-.958.483-.954 1.54-2.968h1.81v6.268h-1.331v-3.553a10.592 10.592 0 01.067-1.411 9.317 9.317 0 01-.439 1.011l-.439.878-.8 1.544q-.4.772-.825 1.584H98.65v-6.321zm11.46.001v1.145h-1.916v5.124h-1.331v-5.124h-1.93v-1.145zm6.974 2.833v.346a2.329 2.329 0 010 .293h-4.232a1.837 1.837 0 00.559 1.331 2.036 2.036 0 001.411.479 4.685 4.685 0 001.69-.293l.213.972a5.323 5.323 0 01-2.1.386 3.607 3.607 0 01-1.331-.226 2.662 2.662 0 01-.985-.639 2.821 2.821 0 01-.612-1 3.819 3.819 0 01-.213-1.331 4.112 4.112 0 01.213-1.331 3.287 3.287 0 01.6-1.065 2.808 2.808 0 01.932-.705 2.848 2.848 0 011.224-.253 2.662 2.662 0 011.078.213 2.276 2.276 0 01.825.612 2.662 2.662 0 01.519.945 3.819 3.819 0 01.213 1.264zm-1.331-.359a1.89 1.89 0 00-.359-1.2 1.224 1.224 0 00-1.025-.452 1.331 1.331 0 00-1.038.466 1.97 1.97 0 00-.492 1.184zm6.702-2.42c.253 0 .572-.08.958-.106s.785 0 1.184 0h.865a3.58 3.58 0 01.918.2 1.837 1.837 0 01.732.479 1.251 1.251 0 01.293.878 1.224 1.224 0 01-.106.506 1.331 1.331 0 01-.279.4 1.53 1.53 0 01-.4.279 1.956 1.956 0 01-.466.16 2.2 2.2 0 011.1.492 1.331 1.331 0 01.519 1.025 1.477 1.477 0 01-.359 1.051 2.262 2.262 0 01-.892.586 4.365 4.365 0 01-1.118.253h-2.882zm1.331 2.5h.705a3.993 3.993 0 00.612 0 2.023 2.023 0 00.506-.146.865.865 0 00.346-.253.639.639 0 00.12-.4.665.665 0 00-.359-.626 2.369 2.369 0 00-1.118-.2h-.825zm0 2.781h.838a4.339 4.339 0 00.586 0 1.93 1.93 0 00.546-.146 1 1 0 00.386-.293.772.772 0 00.173-.532.745.745 0 00-.479-.745 3.327 3.327 0 00-1.331-.2h-.719v1.877z"/></svg>