<svg xmlns="http://www.w3.org/2000/svg" width="24" height="18.692"><defs><clipPath id="a"><path data-name="Контур 234" d="M20.17-81L24-74.631l-10.96 12.1h-.005l-.2.22h-1.671L11-62.488l-.111-.042.021-.057L0-74.631 3.83-81zm-4.976 7.062H8.736l3.229 8.558zm6 0h-4.273l-3.049 8.081zm-14.183 0h-4.2l7.2 7.949zm-2.686-4.751l-1.886 3.136h3.8zm15.316-.057l-1.951 3.193h3.871zM12-78.885l-2.5 3.332h5zm-1.644-.5H5.793l2.049 3.353zm7.782 0h-4.494l2.476 3.3z" transform="translate(0 81)"/></clipPath></defs><g data-name="Сгруппировать 391"><g data-name="Сгруппировать 390" clip-path="url(#a)"><path data-name="Контур 233" d="M-1.154-1.154h26.308v21H-1.154z"/></g></g></svg>