<svg xmlns="http://www.w3.org/2000/svg" width="24.075" height="24"><path d="M18.746 13.499a4.5 4.5 0 10-4.5-4.5 4.5 4.5 0 004.5 4.5zm0-7.5a3 3 0 11-3 3 3 3 0 013-3zM5.95 9a4.5 4.5 0 10-4.5-4.5A4.5 4.5 0 005.95 9zm0-7.5a3 3 0 11-3 3 3 3 0 013-3zM0 11.994l1.5 12h9l1.5-12a14.061 14.061 0 00-6.05-1.5 13.963 13.963 0 00-5.95 1.5zm9.184 10.5H2.709l-1.1-9.589a10.024 10.024 0 014.341-.911 10.182 10.182 0 014.427.915zm14.629-.917l-.608-5.58-.368-.18a10.024 10.024 0 00-4.089-.82 9.656 9.656 0 00-4.089.833l-.36.188-.608 5.567-.2 1.546v.188l-.07.678h10.654zm-8.726.923l.608-5.485a8.839 8.839 0 013.054-.518 9.124 9.124 0 013.054.525l.608 5.477z"/></svg>