<svg xmlns="http://www.w3.org/2000/svg" width="21.534" height="24"><defs><clipPath id="a"><path data-name="Контур 232" d="M109.326-365c0 .1-.1.2-.1.3v23.2c0 .2.1.3.2.5l11.306-12.1zm12.2 12.7l2.975 3-4.165 2.4s-5.355 3-8.231 4.7zm.793-.8l3.174 3.3c.5-.3 4.364-2.5 4.86-2.8.6-.3.5-.8 0-1-.5-.3-4.264-2.5-4.86-2.8l-3.174 3.3zm-.793-.8l2.975-3.2-4.264-2.4s-6.843-4-9.223-5.3l10.512 10.9z" transform="translate(-109.227 365)"/></clipPath></defs><g data-name="Сгруппировать 389"><g data-name="Сгруппировать 388" clip-path="url(#a)"><path data-name="Контур 231" d="M-.404-.404h22.342v24.808H-.404z"/></g></g></svg>