<svg xmlns="http://www.w3.org/2000/svg" width="176" height="52.148"><defs><linearGradient id="a" x1=".915" y1="1.03" x2="-.386" y2=".361" gradientUnits="objectBoundingBox"><stop offset="0" stop-color="#00a0ff"/><stop offset=".01" stop-color="#00a1ff"/><stop offset=".26" stop-color="#00beff"/><stop offset=".51" stop-color="#00d2ff"/><stop offset=".76" stop-color="#00dfff"/><stop offset="1" stop-color="#00e3ff"/></linearGradient><linearGradient id="b" x1="1.077" y1=".734" x2="-1.306" y2=".734" gradientUnits="objectBoundingBox"><stop offset="0" stop-color="#ffe000"/><stop offset=".41" stop-color="#ffbd00"/><stop offset=".78" stop-color="orange"/><stop offset="1" stop-color="#ff9c00"/></linearGradient><linearGradient id="c" x1=".862" y1="-.023" x2="-.501" y2="-1.792" gradientUnits="objectBoundingBox"><stop offset="0" stop-color="#ff3a44"/><stop offset="1" stop-color="#c31162"/></linearGradient><linearGradient id="d" x1="-.188" y1="2.696" x2=".421" y2="1.906" gradientUnits="objectBoundingBox"><stop offset="0" stop-color="#32a071"/><stop offset=".07" stop-color="#2da771"/><stop offset=".48" stop-color="#15cf74"/><stop offset=".8" stop-color="#06e775"/><stop offset="1" stop-color="#00f076"/></linearGradient></defs><path data-name="Контур 39" d="M169.742 52.148H6.167A6.18 6.18 0 010 45.982V6.167A6.167 6.167 0 016.167 0h163.575A6.258 6.258 0 01176 6.167v39.815a6.258 6.258 0 01-6.258 6.166z"/><path data-name="Контур 40" d="M87.019 27.86a5.656 5.656 0 105.683 5.656 5.576 5.576 0 00-5.683-5.656zm0 9.09a3.434 3.434 0 113.194-3.434 3.274 3.274 0 01-3.194 3.434zm-12.39-9.09a5.656 5.656 0 105.669 5.656 5.576 5.576 0 00-5.683-5.656zm0 9.09a3.434 3.434 0 113.181-3.434 3.274 3.274 0 01-3.194 3.434zm-14.76-7.346v2.4h5.749a5.017 5.017 0 01-1.331 3.021 5.882 5.882 0 01-4.43 1.752 6.388 6.388 0 110-12.776 6.122 6.122 0 014.352 1.717l1.69-1.69a8.371 8.371 0 00-6.03-2.491 8.8 8.8 0 100 17.581 7.769 7.769 0 008.211-8.081 7.813 7.813 0 00-.133-1.5zm60.3 1.863a5.229 5.229 0 00-10.168 2.05 5.536 5.536 0 005.616 5.656 5.63 5.63 0 004.711-2.5l-1.93-1.331a3.234 3.234 0 01-2.781 1.57 2.875 2.875 0 01-2.742-1.717l7.573-3.128zm-7.719 1.89a3.1 3.1 0 012.955-3.3 2.2 2.2 0 012.1 1.2zm-6.147 5.48h2.489V22.204h-2.489zm-4.072-9.715h-.094a3.993 3.993 0 00-2.98-1.328 5.669 5.669 0 000 11.326 3.859 3.859 0 002.981-1.331h.08v.812c0 2.169-1.158 3.327-3.021 3.327a3.128 3.128 0 01-2.848-2.01l-2.169.9a5.39 5.39 0 005.017 3.34c2.915 0 5.323-1.717 5.323-5.9V28.193h-2.29zm-2.848 7.825a3.447 3.447 0 010-6.867 3.194 3.194 0 013.021 3.434 3.167 3.167 0 01-3.034 3.434zm32.446-14.746h-5.962v16.636h2.49v-6.305h3.474a5.177 5.177 0 100-10.327zm0 7.985h-3.472V24.52h3.527a2.855 2.855 0 010 5.709zm15.345-2.4a4.658 4.658 0 00-4.432 2.542l2.209.918a2.356 2.356 0 012.262-1.224 2.4 2.4 0 012.662 2.143v.173a5.5 5.5 0 00-2.6-.639c-2.382 0-4.791 1.331-4.791 3.74a3.846 3.846 0 004.126 3.66 3.5 3.5 0 003.194-1.6h.08v1.338h2.4v-6.4c0-2.915-2.209-4.6-5.044-4.6zm-.306 9.116c-.812 0-1.943-.413-1.943-1.411 0-1.331 1.411-1.77 2.662-1.77a4.418 4.418 0 012.262.559 3.008 3.008 0 01-2.915 2.662zm14.147-8.717l-2.848 7.213h-.08l-2.954-7.213h-2.662l4.432 10.088-2.529 5.6h2.6l6.814-15.691zm-22.372 10.652h2.489V22.204h-2.489z" fill="#fff"/><path data-name="Контур 41" d="M10.587 7.56A2.519 2.519 0 0010 9.363v28.48a2.521 2.521 0 00.612 1.8l.093.09L27.17 23.8v-.373L10.68 7.47z" transform="translate(3.307 2.472)" fill="url(#a)"/><path data-name="Контур 42" d="M28.357 27.112l-5.457-5.5v-.382l5.457-5.51.12.067 6.534 3.713c1.863 1.051 1.863 2.781 0 3.846l-6.508 3.7z" transform="translate(6.904 4.658)" fill="url(#b)"/><path data-name="Контур 43" d="M32.639 25.616L27.023 20 10.44 36.583a2.169 2.169 0 002.768.08l19.444-11.047" transform="translate(3.454 5.817)" fill="url(#c)"/><path data-name="Контур 44" d="M32.642 18.641L13.2 7.594a2.169 2.169 0 00-2.768.08l16.6 16.583z" transform="translate(3.451 2.075)" fill="url(#d)"/><path data-name="Контур 45" d="M35.933 31.276l-19.284 10.98a2.223 2.223 0 01-2.662 0l-.093.093.093.093a2.209 2.209 0 002.662 0l19.444-11.046z" opacity=".2"/><path data-name="Контур 46" d="M13.894 42.14a2.662 2.662 0 01-.612-1.863v.2a2.662 2.662 0 00.612 1.863l.093-.093z" opacity=".12"/><path data-name="Контур 47" d="M41.82 27.74l-6.654 3.77.12.12 6.535-3.7a2.329 2.329 0 001.33-1.92 2.475 2.475 0 01-1.331 1.73z" opacity=".12"/><path data-name="Контур 48" d="M16.649 9.855l25.939 14.746a2.475 2.475 0 011.331 1.73 2.329 2.329 0 00-1.331-1.916L16.649 9.669c-1.849-1.065-3.34-.187-3.34 1.943v.2c0-2.13 1.491-3.008 3.34-1.957z" fill="#fff" opacity=".25"/><path data-name="Контур 49" d="M54.866 18.759h-.985v-2.661h.838a3.806 3.806 0 001.011-3.061V9.084h5.323v7h.892v2.662h-.984v-1.677h-6.1zm1.85-5.683a5.323 5.323 0 01-.759 3.061h3.993v-6.068h-3.239z" fill="#fff" stroke="#fff" stroke-miterlimit="10" stroke-width=".2"/><path data-name="Контур 50" d="M69.711 16.042a4.152 4.152 0 01-5.856 0 4.086 4.086 0 01-1.171-2.955 4.106 4.106 0 118.211 0 4.086 4.086 0 01-1.184 2.955zm-5.1-.665a3.074 3.074 0 004.339 0 3.128 3.128 0 00.892-2.289 3.128 3.128 0 00-.888-2.29 3.074 3.074 0 00-4.339 0 3.128 3.128 0 00-.878 2.289 3.128 3.128 0 00.878 2.289z" fill="#fff" stroke="#fff" stroke-miterlimit="10" stroke-width=".2"/><path data-name="Контур 51" d="M75.871 17.252a4.072 4.072 0 01-4.152-4.166 4.072 4.072 0 014.152-4.164 3.686 3.686 0 012.927 1.33l-.719.692a2.662 2.662 0 00-2.221-1.01 3.021 3.021 0 00-2.209.878 3.088 3.088 0 00-.878 2.276 3.088 3.088 0 00.892 2.3 3.021 3.021 0 002.209.878 3.154 3.154 0 002.422-1.145l.719.719a3.886 3.886 0 01-1.331 1.038 4.192 4.192 0 01-1.81.373z" fill="#fff" stroke="#fff" stroke-miterlimit="10" stroke-width=".2"/><path data-name="Контур 52" d="M83.034 17.077h-1.025v-7h-2.236v-.985h5.483v.985h-2.222z" fill="#fff" stroke="#fff" stroke-miterlimit="10" stroke-width=".2"/><path data-name="Контур 53" d="M92.171 9.092l-3.022 6.734a2.01 2.01 0 01-1.837 1.424 2.049 2.049 0 01-.8-.173l.266-.945a1.078 1.078 0 00.532.146.945.945 0 00.559-.133 1.251 1.251 0 00.359-.506l.293-.639-2.712-5.908h1.211l1.97 4.578h0l1.969-4.578z" fill="#fff" stroke="#fff" stroke-miterlimit="10" stroke-width=".2"/><path data-name="Контур 54" d="M93.176 17.077V9.092h5.78v7.985h-1.029v-7h-3.726v7z" fill="#fff" stroke="#fff" stroke-miterlimit="10" stroke-width=".2"/><path data-name="Контур 55" d="M100.612 17.077V9.092h1.025v3.42h3.993v-3.42h1.025v7.985h-1.026v-3.606h-3.992v3.607z" fill="#fff" stroke="#fff" stroke-miterlimit="10" stroke-width=".2"/><path data-name="Контур 56" d="M114.84 16.042a4.152 4.152 0 01-5.856 0 4.086 4.086 0 01-1.184-2.955 4.106 4.106 0 118.211 0 4.086 4.086 0 01-1.171 2.955zm-5.1-.665a3.074 3.074 0 004.339 0 3.128 3.128 0 00.878-2.289 3.127 3.127 0 00-.892-2.289 3.074 3.074 0 00-4.339 0 3.128 3.128 0 00-.878 2.289 3.128 3.128 0 00.892 2.289z" fill="#fff" stroke="#fff" stroke-miterlimit="10" stroke-width=".2"/><path data-name="Контур 57" d="M119.979 17.077V9.092h2.888a2.342 2.342 0 011.624.612 2.01 2.01 0 01.692 1.557 1.744 1.744 0 01-.293 1 1.85 1.85 0 01-.785.652h0a2.023 2.023 0 01.972.692 1.81 1.81 0 01.386 1.145 2.09 2.09 0 01-.719 1.624 2.462 2.462 0 01-1.7.652zm1.025-4.565h1.863a1.2 1.2 0 00.932-.386 1.184 1.184 0 00.053-1.7 1.145 1.145 0 00-.892-.386h-1.956zm0 3.58h2.063a1.224 1.224 0 00.958-.413 1.318 1.318 0 00-.958-2.236h-2.063z" fill="#fff" stroke="#fff" stroke-miterlimit="10" stroke-width=".2"/></svg>