<svg xmlns="http://www.w3.org/2000/svg" width="28" height="26.256"><path d="M14.769 0A13.09 13.09 0 002.617 18.051L0 23.154l2.773 3.1 5.743-1.641A13.128 13.128 0 1014.769 0zm0 24.615a11.487 11.487 0 01-5.743-1.559l-.3-.172L3.348 24.4l-1.412-1.484 2.461-4.8-.156-.345a11.487 11.487 0 1110.527 6.843zm-3.282-11.487a1.641 1.641 0 11-1.641-1.641 1.641 1.641 0 011.641 1.641zm4.923 0a1.641 1.641 0 11-1.641-1.641 1.641 1.641 0 011.641 1.641zm4.923 0a1.641 1.641 0 11-1.641-1.641 1.641 1.641 0 011.641 1.641z"/></svg>