<svg xmlns="http://www.w3.org/2000/svg" width="135.04" height="24"><defs><style>.a{fill:#00b956}</style></defs><path class="a" d="M20.28 18.56a1.5 1.5 0 110-3 1.486 1.486 0 011.48 1.52 1.5 1.5 0 01-1.48 1.48m-3.52 0a1.477 1.477 0 01-1.48-1.48 1.5 1.5 0 113 0 1.538 1.538 0 01-1.52 1.48m-3.52 0a1.5 1.5 0 110-3 1.5 1.5 0 010 3M13.48.08v12.36a.973.973 0 01-.96.96h-1.48a.106.106 0 00-.12.12v10.36A3.2 3.2 0 0012 24 12.006 12.006 0 0013.48.08"/><path class="a" d="M9.72 9.88a1.486 1.486 0 01-1.48-1.52 1.5 1.5 0 113 0 1.545 1.545 0 01-1.52 1.52M12 0a12 12 0 00-2.56 23.72V12.96a1 1 0 01.96-.96h1.48a.106.106 0 00.12-.12V0zm120.04 6.6v4.52h-6.08V6.6h-3v11.96h3v-4.84h6.08v4.84h3V6.6zm-54.48 7.04l1.84-4.36a.249.249 0 01.24-.16.249.249 0 01.24.16l1.84 4.36zm4.56-5.72a2.661 2.661 0 00-2.48-1.6 2.742 2.742 0 00-2.48 1.6l-4.92 10.64h3.2l1.08-2.52h6.2l1.08 2.52H87zM46.44 4.44c-1.4 0-2.28.76-2.96 2.24l-3.88 9-3.92-9c-.68-1.52-1.56-2.24-2.96-2.24a2.7 2.7 0 00-2.68 3V18.6h3V7.72l3.92 8.92a2.826 2.826 0 002.6 2.04 2.826 2.826 0 002.6-2.04l3.92-8.92v10.84h3V7.4a2.635 2.635 0 00-2.64-2.96m7.92 11.6a.231.231 0 01-.24-.24v-2.12h7.48V11.2h-7.48V9.4a.258.258 0 01.24-.24h7.4V6.64h-8.88a1.818 1.818 0 00-1.8 1.8v8.4a1.818 1.818 0 001.8 1.8h8.88v-2.52h-7.4zm12.48 2.52V9.4a.258.258 0 01.24-.24h7.4V6.64H65.6a1.818 1.818 0 00-1.8 1.8V18.6h3.04zm47.72-2.36h-.96c-2.48 0-3.48-1.12-3.48-3.64 0-2.44.84-3.64 3.48-3.64h.96c2.56 0 3.48 1.2 3.48 3.64 0 2.52-1 3.64-3.48 3.64m6.4-3.64c0-4.2-1.8-6.16-6.32-6.16h-1.04c-4.52 0-6.32 1.96-6.32 6.16 0 4.12 1.84 6.12 6.36 6.12h1c4.48 0 6.32-2 6.32-6.12zm-18.96 0c-.44 1.2-1.16 1.96-3.2 1.96h-1.36V7.24h1.84c1.72 0 2.92 1.08 2.92 3.64a6.665 6.665 0 01-.2 1.68m-7.6 1.92h-1.36c-2.04 0-2.76-.76-3.2-1.96a5.324 5.324 0 01-.16-1.68c0-2.56 1.16-3.64 2.92-3.64h1.84v7.28zm4.48-9.76h-5.92c-4.44 0-6.2 2.24-6.2 6.16a11.066 11.066 0 00.12 1.68c.48 2.76 2.08 4.48 6.24 4.48h1.32v1.52h3v-1.52h1.32c4.16 0 5.76-1.68 6.24-4.48a11.064 11.064 0 00.12-1.68c-.04-3.92-1.8-6.16-6.24-6.16"/></svg>