<svg xmlns="http://www.w3.org/2000/svg" width="201.664" height="31.991" viewBox="0 0 201.664 31.991">
  <g id="Artboard" transform="translate(0 -0.005)">
    <g id="logo_mftv_green" transform="translate(0 0.005)">
      <path id="Path" d="M32.009,15.995a16.04,16.04,0,0,1-1.326,6.392c-.1.234-.213.467-.325.7a16,16,0,0,1-28.7,0c-.112-.229-.224-.462-.325-.7A16.04,16.04,0,0,1,0,15.995,15.852,15.852,0,0,1,1.651,8.917c.107-.224.229-.452.351-.671A16.177,16.177,0,0,1,4.684,4.69a16,16,0,0,1,22.624,0A16.2,16.2,0,0,1,30,8.246c.122.218.239.447.351.671a15.923,15.923,0,0,1,1.661,7.077Z" transform="translate(0 -0.005)" fill="#00b956"/>
      <path id="Path-2" data-name="Path" d="M14.5,24.251a6.6,6.6,0,0,0,2.088.279A8.033,8.033,0,1,0,8.559,16.5a7.4,7.4,0,0,0,.7,3.267l-.97.447A8.551,8.551,0,0,1,7.5,16.5a9.095,9.095,0,1,1,9.095,9.095,7.352,7.352,0,0,1-2.429-.325Z" transform="translate(-0.592 -0.589)" fill="#fff"/>
      <path id="Path-3" data-name="Path" d="M21.6,17.053l-7.245-3.709v7.418Z" transform="translate(-1.134 -1.058)" fill="#fff"/>
      <circle id="Oval" cx="1.016" cy="1.016" r="1.016" transform="translate(7.911 19.704)" fill="#731982"/>
      <circle id="Oval-2" data-name="Oval" cx="1.016" cy="1.016" r="1.016" transform="translate(9.333 21.502)" fill="#731982"/>
      <circle id="Oval-3" data-name="Oval" cx="1.016" cy="1.016" r="1.016" transform="translate(11.376 22.539)" fill="#fff"/>
      <path id="Path-4" data-name="Path" d="M43.464,7.557h7l3.953,12.107L58.335,7.557h6.834v18.55h-5.3V14.34L56.48,26.107H52.416L48.768,14.284V26.107h-5.3Z" transform="translate(-3.432 -0.601)" fill="#00b956"/>
      <path id="Shape" d="M84.132,21.122h-9.7A2.224,2.224,0,0,0,76.9,23.4c1.118,0,1.86-.4,2.124-1.082h5.035c-.478,2.835-3.262,4.664-7.113,4.664-4.745,0-7.713-2.54-7.713-7.027,0-4.425,3.048-7.072,7.621-7.072,4.375,0,7.423,2.622,7.423,6.386a10.671,10.671,0,0,1-.142,1.854Zm-5.081-2.678A2.149,2.149,0,0,0,76.8,16.005a2.3,2.3,0,0,0-2.388,2.439Z" transform="translate(-5.467 -1.022)" fill="#00b956"/>
      <path id="Path-5" data-name="Path" d="M97.057,18.088H92.82v8.48h-5.2V13.394h9.435Z" transform="translate(-6.92 -1.062)" fill="#00b956"/>
      <path id="Shape-2" data-name="Shape" d="M98.87,19.962c0-4.065,2.363-6.971,5.99-6.971a4.2,4.2,0,0,1,4.065,2.332V13.362h5.218V26.536h-5.2V24.575a4.311,4.311,0,0,1-4.11,2.332C101.151,26.907,98.87,23.991,98.87,19.962Zm10.314,0a2.484,2.484,0,1,0-4.933,0,2.482,2.482,0,1,0,4.933,0Z" transform="translate(-7.808 -1.03)" fill="#00b956"/>
      <path id="Shape-3" data-name="Shape" d="M130.692,24.476v1.646h-5.538V24.476a7.491,7.491,0,0,1-7.87-7.682c0-3.973,2.784-7.58,7.87-7.58V7.557h5.538V9.2a7.468,7.468,0,0,1,7.87,7.58A7.573,7.573,0,0,1,130.692,24.476Zm-5.482-4.369h.508V13.573h-.508c-1.646,0-2.627,1.351-2.627,3.206s.955,3.313,2.6,3.313Zm8.022-3.328c0-1.854-.981-3.206-2.6-3.206h-.508v6.519h.508C132.282,20.092,133.232,18.684,133.232,16.779Z" transform="translate(-9.262 -0.601)" fill="#00b956"/>
      <path id="Shape-4" data-name="Shape" d="M141.274,19.928c0-4.161,3-7.047,7.662-7.047s7.687,2.871,7.687,7.047-3,7.052-7.687,7.052S141.274,24.089,141.274,19.928Zm10.126,0a2.483,2.483,0,1,0-4.928,0,2.476,2.476,0,1,0,4.913,0Z" transform="translate(-11.157 -1.022)" fill="#00b956"/>
      <path id="Path-6" data-name="Path" d="M160,13.394h5.2V17.9h3.866V13.394h5.223V26.568h-5.223V22H165.2v4.573H160Z" transform="translate(-12.636 -1.062)" fill="#00b956"/>
      <path id="Path-7" data-name="Path" d="M188.852,12.283h-4.771V7.557h15.08v4.725H194.4V26.107h-5.538Z" transform="translate(-14.537 -0.601)" fill="#00b956"/>
      <path id="Shape-5" data-name="Shape" d="M217.642,20.991c0,3.13-2.332,5.116-5.985,5.116h-9.277V7.557h9.064c3.633,0,5.909,1.854,5.909,4.8a4.131,4.131,0,0,1-3.557,4.319A4.131,4.131,0,0,1,217.642,20.991Zm-9.75-9.882v3.922h1.748a1.958,1.958,0,0,0,2.2-1.992c0-1.219-.823-1.931-2.2-1.931Zm4.136,9.115a1.993,1.993,0,0,0-2.23-1.987h-1.905v4.024h1.88A2,2,0,0,0,212.027,20.224Z" transform="translate(-15.982 -0.601)" fill="#00b956"/>
    </g>
  </g>
</svg>
