<svg xmlns="http://www.w3.org/2000/svg" width="203.738" height="19.404" viewBox="0 0 203.738 19.404">
  <path id="Full-Logotype_Amediateka_full_white" data-name="Full-Logotype/Amediateka_full_white" d="M563.78,1119.4v-19.2h4.933v7.278h.355l4.509-7.278h5.643l-5.259,8.472,6.048,9.958v.773h-5.377l-4.065-7.358h-1.924v7.328ZM409.452,1107.84l2.171,5.019h-2.18l-1.7,4.146h5.426l1.1,2.4h4.677v-.713L410.5,1100.1h-2.062L400,1118.691v.713h4.686Zm31.335-7.639H442.5v19.2h-4.933v-8.532l-4.025,4.266H433l-3.947-4.266v8.532h-4.933v-19.2H425.9l7.37,8.312Zm20.64,4.437h-6.966v2.71h6.393v4.347h-6.393v3.363h7.2v4.347H449.677v-19.153h11.751Zm14,14.766h-7.094v-19.153h7.094C487.691,1100.311,487.691,1119.343,475.427,1119.4Zm-2.289-4.457h2.289c6,0,6-10.229,0-10.229h-2.289Zm26.659.11v4.3h-9.541v-4.3h2.388v-10.53h-2.2v-4.276h9.205v4.276H497.4v10.53Zm18.184,1.937h-7.419l-1.1,2.409H504.76v-.713L513.225,1100H515.3l8.485,18.681v.713h-4.706Zm-3.739-9.215-2.121,5.019h4.3Zm11.425-3.142v-4.387h13.981v4.387h-4.6V1119.4h-4.756v-14.766Zm31.779,0H550.49v2.71h6.383v4.347H550.48v3.363h7.2v4.347H545.7v-19.153h11.741Zm41.576,14.766h4.716v-.713L595.263,1100h-2.072l-8.495,18.691v.713h4.736l1.115-2.409h5.446l-1.707-4.176H592.1l2.18-5.019Z" transform="translate(-400 -1100)"/>
</svg>
