<svg xmlns="http://www.w3.org/2000/svg" width="14.401" height="24"><defs><clipPath id="a"><path data-name="Контур 388" d="M343.6-40.081a.8.8 0 01.8.8v2.032h-.01a7.253 7.253 0 01-6.394 7.207v2.432h3.015v.01h.033a.8.8 0 01.8.8.8.8 0 01-.8.8h-7.684a.8.8 0 01-.8-.8.8.8 0 01.8-.8h.029v-.011h3.021v-2.432a7.247 7.247 0 01-6.41-7.206c0-.035.005-.067.006-.1v-1.833a.807.807 0 01-.006-.1.8.8 0 01.8-.8.8.8 0 01.8.8v2.674h.015a5.635 5.635 0 005.42 5.162h.323a5.633 5.633 0 005.421-5.162h.019v-2.666a.009.009 0 00.006-.01.8.8 0 01.796-.797zm-2.085 1.481c0 .483 0 .992-.026 1.475a6.081 6.081 0 01-.2 1.29 4.2 4.2 0 01-1.52 2.215 4.154 4.154 0 01-5.146 0 4.166 4.166 0 01-1.521-2.215 5.992 5.992 0 01-.2-1.29c-.028-.483-.025-.992-.025-1.475v-7.005a4.6 4.6 0 01.224-1.29A4.25 4.25 0 01337.2-50a4.25 4.25 0 014.094 3.108 6.156 6.156 0 01.224 1.29c.029.483 0 2.48 0 2.96v4.042zm-1.6.755c0 .307-.006.41-.026.717a3.787 3.787 0 01-.125.826 2.7 2.7 0 01-.951 1.427 2.631 2.631 0 01-3.229 0 2.688 2.688 0 01-.954-1.427 4 4 0 01-.125-.826c-.016-.307-.019-.41-.019-.717 0-4.256-.019-7.412.006-7.751a4.244 4.244 0 01.138-.826 2.688 2.688 0 01.954-1.427 2.631 2.631 0 013.229 0 2.7 2.7 0 01.951 1.427 3.835 3.835 0 01.154.826c.022.368-.003 3.486-.003 7.755z" clip-rule="evenodd"/></clipPath></defs><g data-name="Сгруппировать 564" transform="translate(-330 50)" clip-path="url(#a)"><path data-name="Контур 387" d="M325.2-54.801h24v33.6h-24z"/></g></svg>