<svg xmlns="http://www.w3.org/2000/svg" width="16.322" height="31.965"><g data-name="Сгруппировать 291"><path data-name="Контур 14" d="M0 3.248l.959.983a10.486 10.486 0 0114.4 0l.959-.983A11.884 11.884 0 000 3.248zm5.005 4.737l.959.983a3.321 3.321 0 014.393 0l.959-.983a4.773 4.773 0 00-6.311-.002z"/><path data-name="Контур 15" d="M2.348 5.643l.956 1a7.515 7.515 0 019.948 0l.956-1a8.957 8.957 0 00-11.86 0z"/><path d="M1.36 31.965h13.6V10.202H1.36zm1.36-20.4h10.882v19.037H2.72zm6.8 16.322a1.36 1.36 0 11-1.36-1.36 1.36 1.36 0 011.361 1.358z"/></g></svg>