<svg xmlns="http://www.w3.org/2000/svg" width="24" height="24"><path d="M12 16.5A4.5 4.5 0 107.5 12a4.5 4.5 0 004.5 4.5zm0-7A2.5 2.5 0 119.5 12 2.5 2.5 0 0112 9.5z"/><path d="M2 18.94L5.06 22l3.23-1 1.52 3h4.38l1.52-3 3.23 1 3.1-3.1L21 15.71l3-1.52V9.81l-3-1.52 1-3.23L18.94 2l-3.23 1-1.52-3H9.81L8.29 3 5.06 2 2 5.06l1 3.23-3 1.52v4.38l3 1.52zm0-6V11l2.92-1.46.37-.88-1-3.1L5.6 4.25l3.1 1 .88-.36L11 2h2l1.46 2.93.88.36 3.1-1 1.31 1.31-1 3.1.37.88L22 11v2l-2.92 1.46-.37.88 1 3.1-1.31 1.31-3.1-1-.88.36L13 22h-2l-1.46-2.93-.88-.36-3.1 1-1.31-1.31 1-3.1-.37-.88z"/></svg>