<svg xmlns="http://www.w3.org/2000/svg" width="23.998" height="24"><g transform="translate(-76.296 -167)"><path d="M78.51 186.2a12.236 12.236 0 011.8-16.092 11.862 11.862 0 0116.017 0 12.234 12.234 0 011.7 16.092l-1.6-1.217a10.163 10.163 0 00-3.1-14.674 9.863 9.863 0 00-10.014 0 10.163 10.163 0 00-3.1 14.674z"/><circle cx="2.398" cy="2.398" r="2.398" transform="translate(85.922 180.637)"/><path d="M95.122 174.69l-.768-.482-7 8.253 2.3 1.726zm-6.623 14.394a.958.958 0 10.958.958.9.9 0 00-.958-.958z"/></g></svg>