<svg xmlns="http://www.w3.org/2000/svg" width="133" height="42.317"><defs><style>.a{fill:#999;fill-rule:evenodd}</style></defs><path class="a" d="M92.351 39.33l-4.481-4.481v.791l3.69 3.69m-.205 0l-3.485-3.485v.831l2.653 2.654m-.662 0l-2.489-2.489v.891l1.6 1.6m2.881-6.182v-.79l-2.987 3.09.382.395m4.098-5.974l-4.978 5.059.41.418 4.568-4.642m-.995-.835l-4.481 4.552.419.426 4.061-4.127m-13.838 5.365a2.344 2.344 0 10-2.334 2.461 2.325 2.325 0 002.334-2.461m-5.577.017a3.236 3.236 0 113.246 3.226 3.147 3.147 0 01-3.246-3.226m12.547-.017a2.344 2.344 0 10-2.334 2.461 2.325 2.325 0 002.334-2.461m-5.577.017a3.236 3.236 0 113.246 3.226 3.148 3.148 0 01-3.246-3.226"/><path class="a" d="M92.351 33.356h.853v5.214h3.13v.76h-3.983m7.48-4.928h-.017l-2.05 4.927h-.933l2.568-5.973h.9l2.51 5.974h-.93m-15.502 0h.994v-5.974h-.994m15.93-.498a.523.523 0 01.244.062.461.461 0 01.187.184.5.5 0 11-.86 0 .463.463 0 01.184-.184.518.518 0 01.245-.062zm0 .082a.416.416 0 10.209.775.416.416 0 00-.21-.775zm-.217.692v-.535h.186a.473.473 0 01.137.012l.067.052.025.078-.041.1-.111.05.045.029a.627.627 0 01.08.106l.066.1h-.106l-.047-.085a.443.443 0 00-.091-.124l-.07-.019h-.054v.238h-.087zm.087-.3h.1a.169.169 0 00.1-.022l.027-.06-.014-.042-.037-.029-.087-.009h-.1v.164zm-35.744 4.202v-.012a1.247 1.247 0 00-1.215-1.344 1.291 1.291 0 00-1.248 1.337v.012a1.288 1.288 0 001.248 1.344 1.221 1.221 0 001.215-1.337m-2.443 1.062v.666h-.514v-4.91h.514v2.13a1.551 1.551 0 011.322-.772 1.689 1.689 0 011.649 1.8v.012a1.7 1.7 0 01-1.649 1.812 1.553 1.553 0 01-1.322-.739m6.4-2.746h.549l-1.447 3.515c-.295.706-.629.962-1.15.962a1.592 1.592 0 01-.737-.172l.174-.4a1.1 1.1 0 00.541.124c.309 0 .5-.158.709-.64l-1.572-3.393h.569l1.257 2.84m-5.807-27.888l.856-1.023a3.741 3.741 0 002.558 1.06c.88 0 1.435-.418 1.435-1.023v-.024c0-.581-.324-.895-1.828-1.243-1.725-.418-2.7-.93-2.7-2.427v-.024a2.482 2.482 0 012.769-2.359 4.485 4.485 0 012.94 1.022l-.764 1.078a3.678 3.678 0 00-2.2-.836c-.834 0-1.319.431-1.319.965v.024c0 .627.371.906 1.933 1.278 1.713.417 2.593 1.033 2.593 2.381v.022c0 1.522-1.192 2.428-2.894 2.428a4.978 4.978 0 01-3.379-1.299m10.919-2.713a1.544 1.544 0 001.749-1.494v-.024c0-.98-.685-1.494-1.749-1.494H72.74v3.012zm-3.078-4.35h3.194a2.755 2.755 0 013.079 2.8v.02c0 1.876-1.459 2.855-3.241 2.855h-1.608v2.688h-1.424zm7.841 0h6.213v1.315h-4.74v2.174h4.2v1.326h-4.2v2.235h4.8v1.314h-6.273m7.841-8.364h6.213v1.315h-4.74v2.174h4.2v1.326h-4.2v2.235h4.8v1.314h-6.273m9.264-7.026v5.688h1.6a2.681 2.681 0 002.809-2.82v-.024a2.7 2.7 0 00-2.809-2.844zM94.84 3.734h3.018a4.1 4.1 0 014.3 4.157v.025a4.114 4.114 0 01-4.3 4.182H94.84zm10.504 1.362h-2.663V3.734h6.8v1.362h-2.667v7h-1.47m5.701-8.362h6.213v1.315h-4.74v2.174h4.2v1.326h-4.2v2.235h4.8v1.314h-6.273m7.841-1.301l.856-1.023a3.741 3.741 0 002.558 1.06c.88 0 1.436-.418 1.436-1.023v-.024c0-.581-.325-.895-1.83-1.243-1.725-.418-2.7-.93-2.7-2.427v-.024a2.482 2.482 0 012.77-2.359 4.485 4.485 0 012.94 1.022l-.764 1.08a3.678 3.678 0 00-2.2-.836c-.834 0-1.319.431-1.319.965v.024c0 .627.371.906 1.933 1.278 1.713.417 2.593 1.033 2.593 2.381v.022c0 1.522-1.192 2.428-2.892 2.428a4.98 4.98 0 01-3.38-1.3m9.98-5.702h-2.663V3.734h6.8v1.362h-2.663v7h-1.469m-59.851 9.15l-1.385-3.322-1.375 3.323h2.761zm-2.017-5.066h1.307l3.528 8.364h-1.49l-.813-2.005h-3.791l-.825 2.005h-1.444zm4.835.024h1.6l2.007 6.14 2.065-6.164h1.25l2.067 6.164 2.007-6.14h1.55l-2.92 8.34h-1.286l-2.067-5.95-2.067 5.95h-1.274m14.636-3.298l-1.386-3.322-1.374 3.323h2.761zm-2.016-5.066H88.7l3.528 8.364h-1.49l-.813-2.005h-3.794l-.825 2.005h-1.444zm9.864 4.146c1.006 0 1.645-.549 1.645-1.4V18.9c0-.9-.617-1.385-1.655-1.385H95.2v2.808zm-3.46-4.146h3.563a3.142 3.142 0 012.308.836 2.591 2.591 0 01.662 1.8v.024a2.49 2.49 0 01-1.9 2.533l2.158 3.166h-1.664l-1.964-2.916H95.2v2.916h-1.405zm9.786 1.338v5.688h1.594a2.681 2.681 0 002.81-2.82v-.024a2.7 2.7 0 00-2.81-2.844zm-1.423-1.338h3.017a4.1 4.1 0 014.3 4.157v.025a4.114 4.114 0 01-4.3 4.182h-3.017zm8.887 7.063l.856-1.023a3.741 3.741 0 002.558 1.058c.88 0 1.435-.418 1.435-1.023v-.022c0-.581-.324-.895-1.83-1.245-1.724-.417-2.7-.928-2.7-2.427v-.022a2.482 2.482 0 012.767-2.359 4.484 4.484 0 012.939 1.022l-.763 1.08a3.676 3.676 0 00-2.2-.835c-.834 0-1.319.429-1.319.963v.024c0 .627.371.906 1.933 1.277 1.713.418 2.593 1.034 2.593 2.382v.022c0 1.522-1.192 2.428-2.894 2.428a4.979 4.979 0 01-3.379-1.3m8.217-6.018l-.027-.307v-.146h-.009c-.019.046-.041.107-.062.156l-.134.29h-.152l-.133-.3q-.025-.074-.052-.147h-.007v.146l-.029.307h-.141l.054-.523h.22l.129.255.049.133.052-.131.127-.258h.212l.058.523h-.147zm-.8-.523v.087h-.236v.436h-.148v-.435h-.236v-.09h.621zM42.809 42.317a24.573 24.573 0 007.345-17.528A24.934 24.934 0 0025.077 0 24.934 24.934 0 000 24.789a24.564 24.564 0 007.346 17.528l3.572-3.532a19.6 19.6 0 01-5.877-14A19.91 19.91 0 0125.077 5.007a19.911 19.911 0 0120.035 19.782 19.593 19.593 0 01-5.868 13.987"/><path class="a" d="M24.912 31.346l-4.537-4.537 14.518-12.7 2.722 2.722"/></svg>