<svg xmlns="http://www.w3.org/2000/svg" width="48.65" height="51.144"><g data-name="Сгруппировать 118" transform="translate(-12084 -5920)"><path data-name="Контур 109" d="M12099.834 5925.689l-14.586-5.633a.8.8 0 00-1.06.983l4.585 15.16a24.567 24.567 0 0111.061-10.51z" fill="#fff"/><path data-name="Контур 124" d="M12100.432 5926.161l-14.777-5.707a.815.815 0 00-1.074 1l4.645 15.358a24.89 24.89 0 0111.206-10.651z" fill="#731982"/><rect data-name="Прямоугольник 101" width="3.603" height="3.603" rx="1.802" transform="rotate(55.016 331.35 14618.37)" fill="#b808d4"/><rect data-name="Прямоугольник 102" width="3.603" height="3.603" rx="1.802" transform="rotate(55.016 320.427 14598.9)" fill="#f7f753"/><rect data-name="Прямоугольник 103" width="3.603" height="3.603" rx="1.802" transform="rotate(77 2294.014 10585.68)" fill="#e8486d"/><circle data-name="Эллипс 48" cx="23.183" cy="23.183" r="23.183" transform="translate(12086.159 5923.557)" fill="#ffd939"/><path data-name="Контур 104" d="M12118.207 5939.029a12.049 12.049 0 00-1.337.08 3.537 3.537 0 00-2.434 1.22c-.5.874.9.813 1.692.717a12.693 12.693 0 011.833-.1c1.521.035 3.993.274 5.463 1.377 2.237 1.681.4-3.612-5.217-3.294z" fill="#8c5106"/><path data-name="Контур 105" d="M12100.543 5939.029a12.047 12.047 0 011.337.08 3.537 3.537 0 012.434 1.22c.5.874-.9.813-1.692.717a12.694 12.694 0 00-1.833-.1c-1.521.035-3.993.274-5.463 1.377-2.238 1.681-.4-3.612 5.217-3.294z" fill="#8c5106"/><path data-name="Контур 106" d="M12113.333 5958.632c-.973-.7.873-1.7 1.3-2.068s1.548-.976 1.543-1.937c-.005-.917-2.144-1.441-2.827-1.679a14.726 14.726 0 00-2.761-.814c-.629-.084-1.058.413-.362.8a12.257 12.257 0 001.592.66 4.48 4.48 0 011.318.639c.546.448.882.929.174 1.374-.96.6-2.03 1-2.944 1.691-1.946 1.477 2.4 2.841 3.093 3.42.588.492.178 1-.343 1.285-1.154.637-1.939.764-2.89 1.289-.7.387-.265.883.367.8a7.344 7.344 0 00.946-.25 13.428 13.428 0 004.074-1.593c.345-.241.639-.519.5-.971-.219-.709-.826-1.025-1.236-1.4a16.507 16.507 0 00-1.544-1.246z" fill="#8c5106"/><circle data-name="Эллипс 49" cx="3.826" cy="3.826" r="3.826" transform="rotate(-76.717 9805.928 -4662.984)" fill="#ff941e"/><circle data-name="Эллипс 50" cx="3.826" cy="3.826" r="3.826" transform="rotate(-76.717 9819.183 -4679.734)" fill="#ff941e"/><path data-name="Контур 107" d="M12117.122 5944.634s3.644-.021 4.295 2.494a.309.309 0 01-.283.386 2.957 2.957 0 01-1.367-.368c-1.245-.6-4.49-.689-6.913.37-.59.258-.578-.881.2-1.615.758-.715 1.311-1.223 4.068-1.267z" fill="#8c5106"/><path data-name="Контур 108" d="M12101.628 5944.634s-3.644-.021-4.295 2.494a.309.309 0 00.283.386 2.957 2.957 0 001.367-.368c1.245-.6 4.49-.689 6.913.37.59.258.578-.881-.2-1.615-.762-.715-1.311-1.223-4.068-1.267z" fill="#8c5106"/><path data-name="Контур 110" d="M12088.234 5933.455c1.41-1.505 6.112-6.47 8.736-8.608l-1.918-.741a71.972 71.972 0 00-7.554 6.917z" fill="#fff"/><path data-name="Контур 111" d="M12090.594 5922.384a37.052 37.052 0 00-4.606 3.645l.713 2.356a64.754 64.754 0 015.925-5.216z" fill="#fff"/><path data-name="Контур 112" d="M12086.621 5920.85a7.957 7.957 0 00-1.761 1.454l.705 2.332a14.026 14.026 0 013.152-2.976z" fill="#fff"/><path data-name="Прямоугольник 104" fill="#731982" d="M12118.433 5956.055h2.187v4.382h-2.187z"/><path data-name="Контур 113" d="M12127.69 5957.277c-2.836-3.143-.1-4.749.888-5.125s3.758-.308 3.826 3.553-4.612 3.382-4.612 3.382h-7.174v-1.811h7.072" fill="#b808d4"/><path data-name="Контур 114" d="M12128.759 5956.512c-.156.156-.531.034-.838-.273s-.429-.682-.273-.838.531-.034.838.273.428.68.273.838z" fill="#fff"/><path data-name="Контур 115" d="M12130.352 5953.708c-.046.216-.427.319-.851.229s-.732-.337-.687-.553.427-.319.851-.229.733.337.687.553z" fill="#fff"/><path data-name="Контур 116" d="M12130.359 5956.13c-.155-.033-.22-.345-.146-.7s.26-.613.415-.581.22.345.146.7-.261.615-.415.581z" fill="#fff"/><path data-name="Контур 117" d="M12132.37 5955.093a.373.373 0 00-.168-.072c-.368-.053-.751.49-.856 1.213s.108 1.353.476 1.406a.359.359 0 00.062 0 3.2 3.2 0 00.522-1.937 6.835 6.835 0 00-.036-.61z" fill="#fff"/><path data-name="Контур 118" d="M12124.994 5959.001a.865.865 0 10-1.695.086h1.678a.842.842 0 00.017-.086z" fill="#fff"/><path data-name="Контур 119" d="M12129.312 5957.933a.968.968 0 00-1.084 1.174 6.4 6.4 0 001.914-.267.97.97 0 00-.83-.907z" fill="#fff"/><path data-name="Контур 120" d="M12126.397 5957.998a.811.811 0 00.919-.686v-.034h-1.611a.81.81 0 00.692.72z" fill="#fff"/><path data-name="Контур 121" d="M12123.193 5957.32v-.042h-1.72a.865.865 0 001.716.042z" fill="#fff"/><path data-name="Контур 122" d="M12127.694 5957.277c4.35.228 3.673-1.947 3.284-2.555a1.762 1.762 0 00-1.687-.645c-.658.117-.777.524-.777.524 1.936-.82 2.719.33 2.448 1.549-.3 1.365-3.143.922-3.143.922z" fill="#731982"/><path data-name="Контур 123" d="M12118.433 5956.565h-3.8c-.429.373-2.274 1.372-1.3 2.068a16.489 16.489 0 011.543 1.238l3.555.04z" fill="#731982"/><rect data-name="Прямоугольник 105" width="3.603" height="3.603" rx="1.802" transform="rotate(34.223 -3564.507 22618.723)" fill="#fbaf49"/><rect data-name="Прямоугольник 106" width="3.603" height="3.603" rx="1.802" transform="rotate(72.3 2001.778 11251.889)" fill="#e8486d"/><rect data-name="Прямоугольник 107" width="3.603" height="3.603" rx="1.802" transform="rotate(34.223 -3554.423 22650.682)" fill="#b808d4"/><rect data-name="Прямоугольник 108" width="3.603" height="3.603" rx="1.802" transform="rotate(55.016 368.412 14613.966)" fill="#f7f753"/><rect data-name="Прямоугольник 109" width="3.603" height="3.603" rx="1.802" transform="rotate(72.332 1984.526 11278.64)" fill="#fbaf49"/><rect data-name="Прямоугольник 110" width="3.603" height="3.603" rx="1.802" transform="rotate(77 2302.254 10580.501)" fill="#b808d4"/></g></svg>