<svg xmlns="http://www.w3.org/2000/svg" width="31.5" height="28"><g transform="translate(-2 -4)"><ellipse cx="1.5" cy="2" rx="1.5" ry="2" transform="translate(12 16)"/><circle cx="2" cy="2" r="2" transform="translate(20 16)"/><path d="M30 12.75h-1.794A9.625 9.625 0 0018.625 4h-1.75a9.625 9.625 0 00-9.625 8.75H5.5a3.5 3.5 0 00-3.5 3.5v3.5a3.5 3.5 0 003.5 3.5H9v-9.625a7.875 7.875 0 01.429-2.525l.131.079A21.875 21.875 0 0021.145 14.5H26.5v9.625a3.5 3.5 0 01-3.5 3.5h-.122A3.5 3.5 0 0019.5 25H16a3.5 3.5 0 100 7h3.5a3.5 3.5 0 003.377-2.625H23a5.25 5.25 0 005.25-5.25v-.875H30a3.5 3.5 0 003.5-3.5v-3.5a3.5 3.5 0 00-3.5-3.5zM7.25 21.5H5.5a1.75 1.75 0 01-1.75-1.75v-3.5A1.75 1.75 0 015.5 14.5h1.75zm12.25 8.75H16a1.75 1.75 0 010-3.5h3.5a1.75 1.75 0 010 3.5zM10.479 9.687l-.306-.192a7.875 7.875 0 016.7-3.745h1.75a7.875 7.875 0 017.822 7h-5.3a20.125 20.125 0 01-10.666-3.063zM31.75 19.75A1.75 1.75 0 0130 21.5h-1.75v-7H30a1.75 1.75 0 011.75 1.75z"/></g></svg>