<svg xmlns="http://www.w3.org/2000/svg" width="32" height="32"><defs><style>.a{fill:#333}</style></defs><path class="a" d="M13 2V0a19 19 0 0119 19h-2A17 17 0 0013 2zm0 12v-2a7 7 0 017 7h-2a5 5 0 00-5-5z"/><path class="a" d="M13 8V6a13 13 0 0113 13h-2A11 11 0 0013 8zm4.48 24h1L22 28.44l-6.83-6.83-2.78 2.78a12.52 12.52 0 01-4.94-4.78l2.78-2.78L3.56 10 0 13.56v1A17.71 17.71 0 0017.48 32zM2 14.38l1.56-1.56 3.85 4L5 19.23l.33.65a14.79 14.79 0 006.79 6.63l.65.33 2.4-2.4 4 4L17.62 30h-.14A15.6 15.6 0 012 14.52z"/></svg>