<svg xmlns="http://www.w3.org/2000/svg" width="134.97" height="22.661" viewBox="0 0 134.97 22.661">
  <path id="more_tv__full" d="M102.126,0q1.448,0,2.9,0V2.9c1.9,0,3.8,0,5.7,0,0,.91,0,1.819,0,2.729-1.9,0-3.8,0-5.7,0q0,4.047,0,8.092a5.557,5.557,0,0,0,5.7,5.438q0,1.447,0,2.893a8.411,8.411,0,0,1-8.6-8.235V5.628c-.967,0-1.932,0-2.9,0q0-1.363,0-2.727c.965,0,1.931,0,2.9,0q0-1.448,0-2.9ZM7.312,2.984a8.421,8.421,0,0,1,8.1,3.62A8.43,8.43,0,0,1,30.82,11.518c0,3.509,0,7.019,0,10.528-.967.014-1.935,0-2.9.006q0-4.6,0-9.193A10.735,10.735,0,0,0,27.7,9.8a5.535,5.535,0,0,0-10.844,1.624q0,5.313,0,10.627c-.966,0-1.934,0-2.9,0q.006-4.548,0-9.095a13.25,13.25,0,0,0-.148-2.871A5.525,5.525,0,0,0,3.6,8.674,5.614,5.614,0,0,0,2.9,11.33q0,5.361,0,10.723-1.448,0-2.9,0V12.088c0-.51-.017-1.022.035-1.531A8.427,8.427,0,0,1,7.312,2.984Zm36.418-.051a9.839,9.839,0,1,1-3.893,1.084,9.885,9.885,0,0,1,3.893-1.084ZM59.89,5.959a8.328,8.328,0,0,1,6.661-3.028c-.017.962,0,1.923-.008,2.885a5.544,5.544,0,0,0-4.459,2.056,5.6,5.6,0,0,0-1.238,3.548q-.007,5.315,0,10.633h-2.9q0-5.362,0-10.723A8.454,8.454,0,0,1,59.89,5.959ZM113.258,2.9c1.081-.006,2.159,0,3.24,0q3.816,7.885,7.6,15.783c2.56-5.246,5.062-10.519,7.618-15.766,1.083.018,2.167,0,3.252.01-3.058,6.389-6.157,12.759-9.215,19.149-1.081.011-2.163,0-3.243.006l-.055-.034q-4.587-9.578-9.2-19.145ZM70.35,7.9a9.868,9.868,0,0,1,18.412,5.49c-2.566.052-5.136.008-7.7.022q-4.537,0-9.074,0a6.951,6.951,0,0,0,10.054,5.6,7.047,7.047,0,0,0,3.11-3.124c.845.473,1.7.934,2.541,1.407A9.864,9.864,0,1,1,70.35,7.9ZM74.7,7.27a7.027,7.027,0,0,0-2.413,3.407q6.631,0,13.262,0a7.065,7.065,0,0,0-2.594-3.541A6.935,6.935,0,0,0,74.7,7.27ZM94.123,18.759a1.847,1.847,0,1,1-1.45,1.384A1.849,1.849,0,0,1,94.123,18.759Z" transform="translate(-0.001 0)" fill-rule="evenodd"/>
</svg>
