<svg xmlns="http://www.w3.org/2000/svg" xmlns:xlink="http://www.w3.org/1999/xlink" width="65.333" height="32" viewBox="0 0 65.333 32">
  <defs>
    <clipPath id="clip-path">
      <rect id="Прямоугольник_455" data-name="Прямоугольник 455" width="65.333" height="32" fill="#14161a"/>
    </clipPath>
  </defs>
  <g id="logo_rebranding_white" clip-path="url(#clip-path)">
    <path id="Контур_600" data-name="Контур 600" d="M5.971,0C1.9,0,0,2.309,0,5.909v4.177c0,3.736.668,5.332,3.361,7.021L5.438,18.4c1.681,1.018,1.9,1.774,1.9,3.957v3.684c0,1.07-.491,1.732-1.42,1.732S4.5,27.151,4.5,26.039V20.256H0v5.825c0,3.642,1.858,5.909,5.877,5.909,4.154,0,6.054-2.4,6.054-5.909V21.547c0-3.463-.887-5.248-3.445-6.885L6.409,13.329c-1.461-.934-1.816-1.6-1.816-4V5.951c0-1.071.491-1.732,1.367-1.732.929,0,1.461.672,1.461,1.732v5.73h4.509V5.909C11.931,2.351,10.031,0,5.971,0Z" fill="#14161a"/>
    <path id="Контур_601" data-name="Контур 601" d="M16.688,5h3.184V31.67h4.593V5h3.184V.551H16.688Z" transform="translate(-3.338 -0.11)" fill="#14161a"/>
    <path id="Контур_602" data-name="Контур 602" d="M67.966.551V5H71.15V31.67h4.593V5h3.184V.551Z" transform="translate(-13.593 -0.11)" fill="#14161a"/>
    <path id="Контур_603" data-name="Контур 603" d="M33.283.551,30.715,31.659h4.551l.626-8.312h3.34l.626,8.312H44.5L41.946.551Zm2.933,18.577L37.3,4.77h.543L38.93,19.128Z" transform="translate(-6.143 -0.11)" fill="#14161a"/>
    <path id="Контур_604" data-name="Контур 604" d="M62.87,29.308V21.216c0-2.582-.971-4-3.319-4.492v-.535c2.338-.357,3.539-2.089,3.539-4.891V6.019c0-3.421-2.035-5.468-5.971-5.468H50.887V31.659H55.48V18.645h2.787V29.308a2.939,2.939,0,0,0,.752,2.351h4.593A2.953,2.953,0,0,1,62.87,29.308ZM58.5,11.529c0,2.225-.491,2.886-1.994,2.886H55.49V4.781h1.19c1.42,0,1.816.577,1.816,2.886Z" transform="translate(-10.177 -0.11)" fill="#14161a"/>
  </g>
</svg>
